<mxfile host="app.diagrams.net" agent="Mozilla/5.0 (Windows NT 10.0; Win64; x64) AppleWebKit/537.36 (KHTML, like Gecko) Chrome/134.0.0.0 Safari/537.36" version="26.1.3">
  <diagram name="페이지-1" id="_BRhv00JYU-RnK_FMh2p">
    <mxGraphModel dx="1949" dy="1706" grid="1" gridSize="10" guides="1" tooltips="1" connect="1" arrows="1" fold="1" page="1" pageScale="1" pageWidth="827" pageHeight="1169" math="0" shadow="0">
      <root>
        <mxCell id="0" />
        <mxCell id="1" parent="0" />
        <mxCell id="LIoRFN2679DY6rcGjams-6" style="edgeStyle=orthogonalEdgeStyle;rounded=0;orthogonalLoop=1;jettySize=auto;html=1;entryX=0;entryY=0.5;entryDx=0;entryDy=0;" parent="1" target="LIoRFN2679DY6rcGjams-3" edge="1">
          <mxGeometry relative="1" as="geometry">
            <mxPoint x="40" y="685" as="sourcePoint" />
          </mxGeometry>
        </mxCell>
        <mxCell id="LIoRFN2679DY6rcGjams-9" style="edgeStyle=orthogonalEdgeStyle;rounded=0;orthogonalLoop=1;jettySize=auto;html=1;" parent="1" source="LIoRFN2679DY6rcGjams-2" target="LIoRFN2679DY6rcGjams-8" edge="1">
          <mxGeometry relative="1" as="geometry" />
        </mxCell>
        <mxCell id="P65RbvOyF0tfIpdQ-kzp-10" value="게임 시작 버튼 클릭" style="edgeLabel;html=1;align=center;verticalAlign=middle;resizable=0;points=[];" vertex="1" connectable="0" parent="LIoRFN2679DY6rcGjams-9">
          <mxGeometry x="-0.0667" y="-4" relative="1" as="geometry">
            <mxPoint as="offset" />
          </mxGeometry>
        </mxCell>
        <mxCell id="LIoRFN2679DY6rcGjams-2" value="게임 시작&lt;span style=&quot;white-space: pre;&quot;&gt;&#x9;&lt;/span&gt;" style="rounded=1;whiteSpace=wrap;html=1;" parent="1" vertex="1">
          <mxGeometry x="90" y="570" width="120" height="60" as="geometry" />
        </mxCell>
        <mxCell id="LIoRFN2679DY6rcGjams-3" value="게임 종료" style="rounded=1;whiteSpace=wrap;html=1;" parent="1" vertex="1">
          <mxGeometry x="90" y="730" width="120" height="60" as="geometry" />
        </mxCell>
        <mxCell id="LIoRFN2679DY6rcGjams-4" value="설정" style="rounded=1;whiteSpace=wrap;html=1;" parent="1" vertex="1">
          <mxGeometry x="90" y="655" width="120" height="60" as="geometry" />
        </mxCell>
        <mxCell id="LIoRFN2679DY6rcGjams-7" style="edgeStyle=orthogonalEdgeStyle;rounded=0;orthogonalLoop=1;jettySize=auto;html=1;entryX=-0.007;entryY=0.377;entryDx=0;entryDy=0;entryPerimeter=0;" parent="1" target="LIoRFN2679DY6rcGjams-2" edge="1">
          <mxGeometry relative="1" as="geometry">
            <mxPoint x="40" y="685" as="sourcePoint" />
          </mxGeometry>
        </mxCell>
        <mxCell id="LIoRFN2679DY6rcGjams-11" style="edgeStyle=orthogonalEdgeStyle;rounded=0;orthogonalLoop=1;jettySize=auto;html=1;exitX=0.5;exitY=0;exitDx=0;exitDy=0;entryX=0.5;entryY=1;entryDx=0;entryDy=0;" parent="1" source="LIoRFN2679DY6rcGjams-8" target="LIoRFN2679DY6rcGjams-10" edge="1">
          <mxGeometry relative="1" as="geometry" />
        </mxCell>
        <mxCell id="P65RbvOyF0tfIpdQ-kzp-8" style="edgeStyle=orthogonalEdgeStyle;rounded=0;orthogonalLoop=1;jettySize=auto;html=1;exitX=1;exitY=0.5;exitDx=0;exitDy=0;entryX=0;entryY=0.5;entryDx=0;entryDy=0;" edge="1" parent="1" source="LIoRFN2679DY6rcGjams-8" target="P65RbvOyF0tfIpdQ-kzp-7">
          <mxGeometry relative="1" as="geometry" />
        </mxCell>
        <mxCell id="P65RbvOyF0tfIpdQ-kzp-49" value="상점 탭 클릭" style="edgeLabel;html=1;align=center;verticalAlign=middle;resizable=0;points=[];" vertex="1" connectable="0" parent="P65RbvOyF0tfIpdQ-kzp-8">
          <mxGeometry x="0.0436" y="-1" relative="1" as="geometry">
            <mxPoint as="offset" />
          </mxGeometry>
        </mxCell>
        <mxCell id="P65RbvOyF0tfIpdQ-kzp-70" style="edgeStyle=orthogonalEdgeStyle;rounded=0;orthogonalLoop=1;jettySize=auto;html=1;exitX=1;exitY=0.5;exitDx=0;exitDy=0;entryX=0;entryY=0.5;entryDx=0;entryDy=0;" edge="1" parent="1" source="LIoRFN2679DY6rcGjams-8" target="P65RbvOyF0tfIpdQ-kzp-67">
          <mxGeometry relative="1" as="geometry">
            <Array as="points">
              <mxPoint x="544" y="770" />
            </Array>
          </mxGeometry>
        </mxCell>
        <mxCell id="P65RbvOyF0tfIpdQ-kzp-71" value="도전 탭 클릭" style="edgeLabel;html=1;align=center;verticalAlign=middle;resizable=0;points=[];" vertex="1" connectable="0" parent="P65RbvOyF0tfIpdQ-kzp-70">
          <mxGeometry x="0.5058" relative="1" as="geometry">
            <mxPoint as="offset" />
          </mxGeometry>
        </mxCell>
        <mxCell id="LIoRFN2679DY6rcGjams-8" value="게임 메인 화면" style="ellipse;whiteSpace=wrap;html=1;" parent="1" vertex="1">
          <mxGeometry x="424" y="560" width="120" height="80" as="geometry" />
        </mxCell>
        <mxCell id="LIoRFN2679DY6rcGjams-16" style="edgeStyle=orthogonalEdgeStyle;rounded=0;orthogonalLoop=1;jettySize=auto;html=1;exitX=0.5;exitY=0;exitDx=0;exitDy=0;" parent="1" source="LIoRFN2679DY6rcGjams-10" target="LIoRFN2679DY6rcGjams-13" edge="1">
          <mxGeometry relative="1" as="geometry" />
        </mxCell>
        <mxCell id="LIoRFN2679DY6rcGjams-17" style="edgeStyle=orthogonalEdgeStyle;rounded=0;orthogonalLoop=1;jettySize=auto;html=1;entryX=0.5;entryY=1;entryDx=0;entryDy=0;" parent="1" source="LIoRFN2679DY6rcGjams-10" target="LIoRFN2679DY6rcGjams-15" edge="1">
          <mxGeometry relative="1" as="geometry" />
        </mxCell>
        <mxCell id="LIoRFN2679DY6rcGjams-18" style="edgeStyle=orthogonalEdgeStyle;rounded=0;orthogonalLoop=1;jettySize=auto;html=1;entryX=0.5;entryY=1;entryDx=0;entryDy=0;" parent="1" source="LIoRFN2679DY6rcGjams-10" target="LIoRFN2679DY6rcGjams-12" edge="1">
          <mxGeometry relative="1" as="geometry" />
        </mxCell>
        <mxCell id="LIoRFN2679DY6rcGjams-20" style="edgeStyle=orthogonalEdgeStyle;rounded=0;orthogonalLoop=1;jettySize=auto;html=1;exitX=0.5;exitY=0;exitDx=0;exitDy=0;entryX=0.5;entryY=1;entryDx=0;entryDy=0;" parent="1" source="LIoRFN2679DY6rcGjams-10" target="LIoRFN2679DY6rcGjams-14" edge="1">
          <mxGeometry relative="1" as="geometry" />
        </mxCell>
        <mxCell id="LIoRFN2679DY6rcGjams-10" value="게임 요소" style="rounded=0;whiteSpace=wrap;html=1;" parent="1" vertex="1">
          <mxGeometry x="424" y="450" width="120" height="60" as="geometry" />
        </mxCell>
        <mxCell id="LIoRFN2679DY6rcGjams-27" style="edgeStyle=orthogonalEdgeStyle;rounded=0;orthogonalLoop=1;jettySize=auto;html=1;exitX=0.5;exitY=0;exitDx=0;exitDy=0;entryX=0.5;entryY=1;entryDx=0;entryDy=0;" parent="1" target="LIoRFN2679DY6rcGjams-26" edge="1">
          <mxGeometry relative="1" as="geometry">
            <mxPoint x="429" y="300" as="sourcePoint" />
          </mxGeometry>
        </mxCell>
        <mxCell id="LIoRFN2679DY6rcGjams-12" value="주어진 영역에 나무 심기" style="rhombus;whiteSpace=wrap;html=1;" parent="1" vertex="1">
          <mxGeometry x="499" y="300" width="80" height="80" as="geometry" />
        </mxCell>
        <mxCell id="LIoRFN2679DY6rcGjams-13" value="산불 진압 후 영역 넓히기" style="rhombus;whiteSpace=wrap;html=1;" parent="1" vertex="1">
          <mxGeometry x="279" y="300" width="80" height="80" as="geometry" />
        </mxCell>
        <mxCell id="LIoRFN2679DY6rcGjams-14" value="산불이 확산돼 영역 줄어들기" style="rhombus;whiteSpace=wrap;html=1;" parent="1" vertex="1">
          <mxGeometry x="609" y="300" width="80" height="80" as="geometry" />
        </mxCell>
        <mxCell id="LIoRFN2679DY6rcGjams-15" value="심겨진 나무에 비례하여 자원 획득하기" style="rhombus;whiteSpace=wrap;html=1;" parent="1" vertex="1">
          <mxGeometry x="389" y="300" width="80" height="80" as="geometry" />
        </mxCell>
        <mxCell id="LIoRFN2679DY6rcGjams-24" style="edgeStyle=orthogonalEdgeStyle;rounded=0;orthogonalLoop=1;jettySize=auto;html=1;exitX=1;exitY=0.5;exitDx=0;exitDy=0;entryX=0;entryY=0.5;entryDx=0;entryDy=0;" parent="1" source="LIoRFN2679DY6rcGjams-22" target="LIoRFN2679DY6rcGjams-4" edge="1">
          <mxGeometry relative="1" as="geometry" />
        </mxCell>
        <mxCell id="LIoRFN2679DY6rcGjams-22" value="프로그램 실행" style="rounded=1;whiteSpace=wrap;html=1;" parent="1" vertex="1">
          <mxGeometry x="-150" y="655" width="120" height="60" as="geometry" />
        </mxCell>
        <mxCell id="P65RbvOyF0tfIpdQ-kzp-2" style="edgeStyle=orthogonalEdgeStyle;rounded=0;orthogonalLoop=1;jettySize=auto;html=1;exitX=0.5;exitY=0;exitDx=0;exitDy=0;entryX=0.5;entryY=1;entryDx=0;entryDy=0;" edge="1" parent="1" source="LIoRFN2679DY6rcGjams-26" target="LIoRFN2679DY6rcGjams-28">
          <mxGeometry relative="1" as="geometry" />
        </mxCell>
        <mxCell id="P65RbvOyF0tfIpdQ-kzp-3" style="edgeStyle=orthogonalEdgeStyle;rounded=0;orthogonalLoop=1;jettySize=auto;html=1;entryX=0.5;entryY=1;entryDx=0;entryDy=0;" edge="1" parent="1" source="LIoRFN2679DY6rcGjams-26" target="LIoRFN2679DY6rcGjams-29">
          <mxGeometry relative="1" as="geometry" />
        </mxCell>
        <mxCell id="P65RbvOyF0tfIpdQ-kzp-4" style="edgeStyle=orthogonalEdgeStyle;rounded=0;orthogonalLoop=1;jettySize=auto;html=1;entryX=0.5;entryY=1;entryDx=0;entryDy=0;" edge="1" parent="1" source="LIoRFN2679DY6rcGjams-26" target="LIoRFN2679DY6rcGjams-30">
          <mxGeometry relative="1" as="geometry" />
        </mxCell>
        <mxCell id="P65RbvOyF0tfIpdQ-kzp-6" style="edgeStyle=orthogonalEdgeStyle;rounded=0;orthogonalLoop=1;jettySize=auto;html=1;exitX=0.5;exitY=0;exitDx=0;exitDy=0;entryX=0.5;entryY=1;entryDx=0;entryDy=0;" edge="1" parent="1" source="LIoRFN2679DY6rcGjams-26" target="P65RbvOyF0tfIpdQ-kzp-1">
          <mxGeometry relative="1" as="geometry" />
        </mxCell>
        <mxCell id="LIoRFN2679DY6rcGjams-26" value="획득 가능한 자원" style="rounded=0;whiteSpace=wrap;html=1;" parent="1" vertex="1">
          <mxGeometry x="369" y="210" width="120" height="60" as="geometry" />
        </mxCell>
        <mxCell id="LIoRFN2679DY6rcGjams-28" value="산소 : 심겨진 나무에 비례해 자동으로 생성" style="ellipse;whiteSpace=wrap;html=1;" parent="1" vertex="1">
          <mxGeometry x="141.5" y="80" width="120" height="80" as="geometry" />
        </mxCell>
        <mxCell id="P65RbvOyF0tfIpdQ-kzp-15" style="edgeStyle=orthogonalEdgeStyle;rounded=0;orthogonalLoop=1;jettySize=auto;html=1;exitX=0.5;exitY=0;exitDx=0;exitDy=0;entryX=0.5;entryY=1;entryDx=0;entryDy=0;" edge="1" parent="1" source="LIoRFN2679DY6rcGjams-29" target="P65RbvOyF0tfIpdQ-kzp-14">
          <mxGeometry relative="1" as="geometry" />
        </mxCell>
        <mxCell id="LIoRFN2679DY6rcGjams-29" value="목재 : 심겨진 나무 파괴 후 획득 가능" style="ellipse;whiteSpace=wrap;html=1;" parent="1" vertex="1">
          <mxGeometry x="291.5" y="80" width="120" height="80" as="geometry" />
        </mxCell>
        <mxCell id="LIoRFN2679DY6rcGjams-30" value="잿가루 : 영역 확장/감소 시 획득 가능한 특별한 재화" style="ellipse;whiteSpace=wrap;html=1;" parent="1" vertex="1">
          <mxGeometry x="441.5" y="80" width="120" height="80" as="geometry" />
        </mxCell>
        <mxCell id="P65RbvOyF0tfIpdQ-kzp-1" value="환생 재화 : 환생 레이어를 통해 얻을 수 있는 재화(미정)" style="ellipse;whiteSpace=wrap;html=1;" vertex="1" parent="1">
          <mxGeometry x="596.5" y="80" width="120" height="80" as="geometry" />
        </mxCell>
        <mxCell id="P65RbvOyF0tfIpdQ-kzp-20" style="edgeStyle=orthogonalEdgeStyle;rounded=0;orthogonalLoop=1;jettySize=auto;html=1;exitX=1;exitY=0.5;exitDx=0;exitDy=0;entryX=0;entryY=0.5;entryDx=0;entryDy=0;" edge="1" parent="1" source="P65RbvOyF0tfIpdQ-kzp-7" target="P65RbvOyF0tfIpdQ-kzp-12">
          <mxGeometry relative="1" as="geometry" />
        </mxCell>
        <mxCell id="P65RbvOyF0tfIpdQ-kzp-21" style="edgeStyle=orthogonalEdgeStyle;rounded=0;orthogonalLoop=1;jettySize=auto;html=1;exitX=1;exitY=0.5;exitDx=0;exitDy=0;entryX=0;entryY=0.5;entryDx=0;entryDy=0;" edge="1" parent="1" source="P65RbvOyF0tfIpdQ-kzp-7" target="P65RbvOyF0tfIpdQ-kzp-11">
          <mxGeometry relative="1" as="geometry" />
        </mxCell>
        <mxCell id="P65RbvOyF0tfIpdQ-kzp-22" style="edgeStyle=orthogonalEdgeStyle;rounded=0;orthogonalLoop=1;jettySize=auto;html=1;exitX=1;exitY=0.5;exitDx=0;exitDy=0;entryX=0;entryY=0.5;entryDx=0;entryDy=0;" edge="1" parent="1" source="P65RbvOyF0tfIpdQ-kzp-7" target="P65RbvOyF0tfIpdQ-kzp-16">
          <mxGeometry relative="1" as="geometry" />
        </mxCell>
        <mxCell id="P65RbvOyF0tfIpdQ-kzp-7" value="상점" style="rounded=1;whiteSpace=wrap;html=1;" vertex="1" parent="1">
          <mxGeometry x="689" y="568.5" width="120" height="60" as="geometry" />
        </mxCell>
        <mxCell id="P65RbvOyF0tfIpdQ-kzp-11" value="새 나무 심기" style="rhombus;whiteSpace=wrap;html=1;" vertex="1" parent="1">
          <mxGeometry x="920" y="463.5" width="110" height="80" as="geometry" />
        </mxCell>
        <mxCell id="P65RbvOyF0tfIpdQ-kzp-12" value="불 끄고 영역 넓히기" style="rhombus;whiteSpace=wrap;html=1;" vertex="1" parent="1">
          <mxGeometry x="920" y="558.5" width="110" height="80" as="geometry" />
        </mxCell>
        <mxCell id="P65RbvOyF0tfIpdQ-kzp-14" value="돈 : 목재를 팔아 획득 가능한 재화, 나무 구매 가능" style="ellipse;whiteSpace=wrap;html=1;" vertex="1" parent="1">
          <mxGeometry x="291.5" y="-20" width="120" height="80" as="geometry" />
        </mxCell>
        <mxCell id="P65RbvOyF0tfIpdQ-kzp-16" value="자원 생산 효율 업그레이드" style="rhombus;whiteSpace=wrap;html=1;" vertex="1" parent="1">
          <mxGeometry x="920" y="656.5" width="110" height="80" as="geometry" />
        </mxCell>
        <mxCell id="P65RbvOyF0tfIpdQ-kzp-35" style="edgeStyle=orthogonalEdgeStyle;rounded=0;orthogonalLoop=1;jettySize=auto;html=1;exitX=0;exitY=0.5;exitDx=0;exitDy=0;" edge="1" parent="1" source="P65RbvOyF0tfIpdQ-kzp-24" target="LIoRFN2679DY6rcGjams-8">
          <mxGeometry relative="1" as="geometry">
            <Array as="points">
              <mxPoint x="689" y="850" />
              <mxPoint x="484" y="850" />
            </Array>
          </mxGeometry>
        </mxCell>
        <mxCell id="P65RbvOyF0tfIpdQ-kzp-36" value="뒤로가기 버튼" style="edgeLabel;html=1;align=center;verticalAlign=middle;resizable=0;points=[];" vertex="1" connectable="0" parent="P65RbvOyF0tfIpdQ-kzp-35">
          <mxGeometry x="-0.0385" y="-1" relative="1" as="geometry">
            <mxPoint x="60" y="1" as="offset" />
          </mxGeometry>
        </mxCell>
        <mxCell id="P65RbvOyF0tfIpdQ-kzp-37" style="edgeStyle=orthogonalEdgeStyle;rounded=0;orthogonalLoop=1;jettySize=auto;html=1;exitX=0.5;exitY=1;exitDx=0;exitDy=0;entryX=0.5;entryY=0;entryDx=0;entryDy=0;" edge="1" parent="1" source="P65RbvOyF0tfIpdQ-kzp-24" target="P65RbvOyF0tfIpdQ-kzp-29">
          <mxGeometry relative="1" as="geometry" />
        </mxCell>
        <mxCell id="P65RbvOyF0tfIpdQ-kzp-38" value="환생 확인" style="edgeLabel;html=1;align=center;verticalAlign=middle;resizable=0;points=[];" vertex="1" connectable="0" parent="P65RbvOyF0tfIpdQ-kzp-37">
          <mxGeometry x="-0.1543" y="-1" relative="1" as="geometry">
            <mxPoint as="offset" />
          </mxGeometry>
        </mxCell>
        <mxCell id="P65RbvOyF0tfIpdQ-kzp-24" value="환생 확인 절차" style="rounded=1;whiteSpace=wrap;html=1;" vertex="1" parent="1">
          <mxGeometry x="689" y="920" width="120" height="60" as="geometry" />
        </mxCell>
        <mxCell id="P65RbvOyF0tfIpdQ-kzp-45" style="edgeStyle=orthogonalEdgeStyle;rounded=0;orthogonalLoop=1;jettySize=auto;html=1;exitX=0;exitY=0.5;exitDx=0;exitDy=0;entryX=1;entryY=0.5;entryDx=0;entryDy=0;" edge="1" parent="1" source="P65RbvOyF0tfIpdQ-kzp-29" target="P65RbvOyF0tfIpdQ-kzp-41">
          <mxGeometry relative="1" as="geometry" />
        </mxCell>
        <mxCell id="P65RbvOyF0tfIpdQ-kzp-29" value="환생 진행" style="rounded=1;whiteSpace=wrap;html=1;" vertex="1" parent="1">
          <mxGeometry x="689" y="1080" width="120" height="60" as="geometry" />
        </mxCell>
        <mxCell id="P65RbvOyF0tfIpdQ-kzp-33" value="" style="curved=1;endArrow=classic;html=1;rounded=0;exitX=0.5;exitY=0;exitDx=0;exitDy=0;entryX=0.5;entryY=0;entryDx=0;entryDy=0;" edge="1" parent="1" source="P65RbvOyF0tfIpdQ-kzp-7" target="LIoRFN2679DY6rcGjams-8">
          <mxGeometry width="50" height="50" relative="1" as="geometry">
            <mxPoint x="560" y="580" as="sourcePoint" />
            <mxPoint x="610" y="530" as="targetPoint" />
            <Array as="points">
              <mxPoint x="620" y="510" />
            </Array>
          </mxGeometry>
        </mxCell>
        <mxCell id="P65RbvOyF0tfIpdQ-kzp-34" value="뒤로가기 버튼" style="edgeLabel;html=1;align=center;verticalAlign=middle;resizable=0;points=[];" vertex="1" connectable="0" parent="P65RbvOyF0tfIpdQ-kzp-33">
          <mxGeometry x="0.0269" y="19" relative="1" as="geometry">
            <mxPoint as="offset" />
          </mxGeometry>
        </mxCell>
        <mxCell id="P65RbvOyF0tfIpdQ-kzp-46" style="edgeStyle=orthogonalEdgeStyle;rounded=0;orthogonalLoop=1;jettySize=auto;html=1;exitX=0;exitY=0.5;exitDx=0;exitDy=0;entryX=0.5;entryY=1;entryDx=0;entryDy=0;" edge="1" parent="1" source="P65RbvOyF0tfIpdQ-kzp-41" target="LIoRFN2679DY6rcGjams-8">
          <mxGeometry relative="1" as="geometry">
            <Array as="points">
              <mxPoint x="484" y="950" />
            </Array>
          </mxGeometry>
        </mxCell>
        <mxCell id="P65RbvOyF0tfIpdQ-kzp-41" value="환생 재화 획득, 환생재화를 제외한 게임 초기화" style="rounded=0;whiteSpace=wrap;html=1;" vertex="1" parent="1">
          <mxGeometry x="520" y="1080" width="120" height="60" as="geometry" />
        </mxCell>
        <mxCell id="P65RbvOyF0tfIpdQ-kzp-73" style="edgeStyle=orthogonalEdgeStyle;rounded=0;orthogonalLoop=1;jettySize=auto;html=1;exitX=1;exitY=0.5;exitDx=0;exitDy=0;entryX=0;entryY=0.5;entryDx=0;entryDy=0;" edge="1" parent="1" source="P65RbvOyF0tfIpdQ-kzp-67" target="P65RbvOyF0tfIpdQ-kzp-72">
          <mxGeometry relative="1" as="geometry" />
        </mxCell>
        <mxCell id="P65RbvOyF0tfIpdQ-kzp-67" value="도전" style="rounded=1;whiteSpace=wrap;html=1;" vertex="1" parent="1">
          <mxGeometry x="689" y="740" width="120" height="60" as="geometry" />
        </mxCell>
        <mxCell id="P65RbvOyF0tfIpdQ-kzp-68" style="edgeStyle=orthogonalEdgeStyle;rounded=0;orthogonalLoop=1;jettySize=auto;html=1;exitX=1;exitY=0.5;exitDx=0;exitDy=0;entryX=-0.007;entryY=0.639;entryDx=0;entryDy=0;entryPerimeter=0;" edge="1" parent="1" source="LIoRFN2679DY6rcGjams-8" target="P65RbvOyF0tfIpdQ-kzp-24">
          <mxGeometry relative="1" as="geometry">
            <Array as="points">
              <mxPoint x="544" y="958" />
            </Array>
          </mxGeometry>
        </mxCell>
        <mxCell id="P65RbvOyF0tfIpdQ-kzp-69" value="환생 탭 클릭" style="edgeLabel;html=1;align=center;verticalAlign=middle;resizable=0;points=[];" vertex="1" connectable="0" parent="P65RbvOyF0tfIpdQ-kzp-68">
          <mxGeometry x="0.1157" y="4" relative="1" as="geometry">
            <mxPoint as="offset" />
          </mxGeometry>
        </mxCell>
        <mxCell id="P65RbvOyF0tfIpdQ-kzp-74" style="edgeStyle=orthogonalEdgeStyle;rounded=0;orthogonalLoop=1;jettySize=auto;html=1;exitX=0.5;exitY=0;exitDx=0;exitDy=0;" edge="1" parent="1" source="P65RbvOyF0tfIpdQ-kzp-72" target="LIoRFN2679DY6rcGjams-8">
          <mxGeometry relative="1" as="geometry">
            <Array as="points">
              <mxPoint x="1130" y="720" />
              <mxPoint x="484" y="720" />
            </Array>
          </mxGeometry>
        </mxCell>
        <mxCell id="P65RbvOyF0tfIpdQ-kzp-75" value="도전 완료 보상 획득 및 메인 게임으로 복귀" style="edgeLabel;html=1;align=center;verticalAlign=middle;resizable=0;points=[];" vertex="1" connectable="0" parent="P65RbvOyF0tfIpdQ-kzp-74">
          <mxGeometry x="-0.1199" y="1" relative="1" as="geometry">
            <mxPoint x="-72" as="offset" />
          </mxGeometry>
        </mxCell>
        <mxCell id="P65RbvOyF0tfIpdQ-kzp-72" value="게임의 특정 제약을 추가한 후, 더 어려워진 난이도로 주어진 도전 목표에 도달" style="rounded=1;whiteSpace=wrap;html=1;" vertex="1" parent="1">
          <mxGeometry x="1070" y="740" width="120" height="60" as="geometry" />
        </mxCell>
      </root>
    </mxGraphModel>
  </diagram>
</mxfile>
